<svg id="Group_16" data-name="Group 16" xmlns="http://www.w3.org/2000/svg" width="37.295" height="33.29" viewBox="0 0 37.295 33.29">
  <g id="Group_14" data-name="Group 14" transform="translate(0)">
    <path id="Path_15" data-name="Path 15" d="M317.549,235.677h-33.1a2.1,2.1,0,0,0-2.1,2.1h0a2.1,2.1,0,0,0,2.1,2.1h.021l2.118,13.023a2.112,2.112,0,0,0,2.084,1.773h24.648a2.112,2.112,0,0,0,2.084-1.773l2.118-13.023h.021a2.1,2.1,0,0,0,2.1-2.1h0A2.1,2.1,0,0,0,317.549,235.677Z" transform="translate(-282.354 -221.382)" fill="#fff"/>
    <path id="Path_16" data-name="Path 16" d="M301.366,192.036a2.015,2.015,0,0,1,2.073-1.621h2.94a1.145,1.145,0,0,0,1.127.95h7.634a1.145,1.145,0,0,0,1.127-.95h2.94a2.015,2.015,0,0,1,2.073,1.621c.238.918,1.542,6.275,1.963,8.01h2.423c-.136-.584-1.819-7.493-2.106-8.6a4.354,4.354,0,0,0-4.352-3.385h-2.94a1.145,1.145,0,0,0-1.127-.95h-7.634a1.145,1.145,0,0,0-1.127.95h-2.94a4.354,4.354,0,0,0-4.352,3.385c-.287,1.108-1.97,8.016-2.106,8.6H299.4C299.824,198.311,301.127,192.954,301.366,192.036Z" transform="translate(-292.675 -187.11)" fill="#fff"/>
  </g>
  <g id="Group_15" data-name="Group 15" transform="translate(10.384 18.439)">
    <path id="Path_17" data-name="Path 17" d="M318.637,249.756a1,1,0,0,0-1.005,1.005v10.671a1.005,1.005,0,1,0,2.011,0V250.761A1,1,0,0,0,318.637,249.756Z" transform="translate(-317.632 -249.756)" fill="#1d1d1b"/>
    <path id="Path_18" data-name="Path 18" d="M335.078,249.756a1,1,0,0,0-1.005,1.005v10.671a1.005,1.005,0,1,0,2.011,0V250.761A1,1,0,0,0,335.078,249.756Z" transform="translate(-329.234 -249.756)" fill="#1d1d1b"/>
    <path id="Path_19" data-name="Path 19" d="M351.519,249.756a1,1,0,0,0-1.005,1.005v10.671a1.005,1.005,0,1,0,2.01,0V250.761A1,1,0,0,0,351.519,249.756Z" transform="translate(-340.836 -249.756)" fill="#1d1d1b"/>
    <path id="Path_20" data-name="Path 20" d="M367.96,249.756a1,1,0,0,0-1.005,1.005v10.671a1.005,1.005,0,1,0,2.01,0V250.761A1,1,0,0,0,367.96,249.756Z" transform="translate(-352.438 -249.756)" fill="#1d1d1b"/>
  </g>
</svg>
