<svg xmlns="http://www.w3.org/2000/svg" width="10.448" height="25.773" viewBox="0 0 10.448 25.773">
  <path id="Path_22" data-name="Path 22" d="M116.311,220.693a1.4,1.4,0,0,0-1.857-.687l-1.636.752a13.761,13.761,0,0,1,0-13.05l1.636.752a1.4,1.4,0,0,0,1.857-.687l1.778-3.868a.963.963,0,0,0-.472-1.277l-2.126-.978a3.318,3.318,0,0,0-4.4,1.628L110.3,205a22.305,22.305,0,0,0-2.57,9.233,22.3,22.3,0,0,0,2.569,9.232l.792,1.722a3.318,3.318,0,0,0,4.4,1.628l2.126-.978a.963.963,0,0,0,.472-1.277Z" transform="translate(-107.73 -201.347)" fill="#fff"/>
</svg>
